{
	"asset":{
		"generator":"Khronos glTF Blender I/O v4.3.47",
		"version":"2.0"
	},
	"scene":0,
	"scenes":[
		{
			"name":"Scene",
			"nodes":[
				0
			]
		}
	],
	"nodes":[
		{
			"mesh":0,
			"name":"Armadillo"
		}
	],
	"meshes":[
		{
			"name":"Armadillo",
			"primitives":[
				{
					"attributes":{
						"POSITION":0,
						"NORMAL":1
					},
					"indices":2
				}
			]
		}
	],
	"accessors":[
		{
			"bufferView":0,
			"componentType":5126,
			"count":1037423,
			"max":[
				63.5001335144043,
				57.71400451660156,
				54.241539001464844
			],
			"min":[
				-63.5001220703125,
				-57.714515686035156,
				-97.0804214477539
			],
			"type":"VEC3"
		},
		{
			"bufferView":1,
			"componentType":5126,
			"count":1037423,
			"type":"VEC3"
		},
		{
			"bufferView":2,
			"componentType":5125,
			"count":1037832,
			"type":"SCALAR"
		}
	],
	"bufferViews":[
		{
			"buffer":0,
			"byteLength":12449076,
			"byteOffset":0,
			"target":34962
		},
		{
			"buffer":0,
			"byteLength":12449076,
			"byteOffset":12449076,
			"target":34962
		},
		{
			"buffer":0,
			"byteLength":4151328,
			"byteOffset":24898152,
			"target":34963
		}
	],
	"buffers":[
		{
			"byteLength":29049480,
			"uri":"armadillo.bin"
		}
	]
}
