{
	"asset":{
		"generator":"Khronos glTF Blender I/O v4.3.47",
		"version":"2.0"
	},
	"scene":0,
	"scenes":[
		{
			"name":"Scene",
			"nodes":[
				0
			]
		}
	],
	"nodes":[
		{
			"mesh":0,
			"name":"Mesh_0"
		}
	],
	"meshes":[
		{
			"name":"Mesh_0",
			"primitives":[
				{
					"attributes":{
						"POSITION":0,
						"NORMAL":1
					},
					"indices":2
				}
			]
		}
	],
	"accessors":[
		{
			"bufferView":0,
			"componentType":5126,
			"count":207945,
			"max":[
				0.0610090009868145,
				0.1873210072517395,
				0.058800000697374344
			],
			"min":[
				-0.0946900025010109,
				0.033311277627944946,
				-0.06187399849295616
			],
			"type":"VEC3"
		},
		{
			"bufferView":1,
			"componentType":5126,
			"count":207945,
			"type":"VEC3"
		},
		{
			"bufferView":2,
			"componentType":5125,
			"count":208980,
			"type":"SCALAR"
		}
	],
	"bufferViews":[
		{
			"buffer":0,
			"byteLength":2495340,
			"byteOffset":0,
			"target":34962
		},
		{
			"buffer":0,
			"byteLength":2495340,
			"byteOffset":2495340,
			"target":34962
		},
		{
			"buffer":0,
			"byteLength":835920,
			"byteOffset":4990680,
			"target":34963
		}
	],
	"buffers":[
		{
			"byteLength":5826600,
			"uri":"stanford-bunny-retopo.bin"
		}
	]
}
